# xmcd
#
# Track frame offsets:
#	150
#	48451
#	64613
#	96993
#	115190
#	135218
#	174866
#	206666
#	242602
#	285051
#
# Disc length: 4173 seconds
#
# Revision: 1
# Processed by: cddbd v1.5.2PL0 Copyright (c) Steve Scherf et al.
# Submitted via: audiograbber 1.83.01
#
DISCID=7c104b0a
DTITLE=Various Artist - TRUE BLUE: 75 Years Of Blue Note Records - Disk 2/4
DYEAR=2014
DGENRE=Blues
TTITLE0=John Coltrane - Blue Train
TTITLE1=J. J. Johnson - Too Marvelous For Words
TTITLE2=Freddie Hubbard - Open Sesame
TTITLE3=Miles Davis - It Never Entered My Mind
TTITLE4=Earl Klugh - Dr. Macumba
TTITLE5=Dexter Gordon - Willow Weep For Me
TTITLE6=Horace Silver - Senor Blues
TTITLE7=Sonny Rollins - Decision
TTITLE8=Lou Donaldson - Here `Tis
TTITLE9=Jutta Hipp and Zoot Sims - Violets for Your Furs
EXTD=
EXTT0=
EXTT1=
EXTT2=
EXTT3=
EXTT4=
EXTT5=
EXTT6=
EXTT7=
EXTT8=
EXTT9=
PLAYORDER=
